# xmcd
#
# Track frame offsets:
#	150
#	17797
#	36098
#	53953
#	73495
#	89058
#	102680
#	117993
#	140442
#	154684
#	169053
#	189308
#
# Disc length: 2749 seconds
#
# Revision: 0
# Processed by: cddbd v1.5.2PL0 Copyright (c) Steve Scherf et al.
# Submitted via: dBpowerAMP V4.0
#
DISCID=af0abb0c
DTITLE=Emma Hannah - Songs To Dream On
DYEAR=2011
DGENRE=Country
TTITLE0=Flesh and Blood
TTITLE1=Lay Down Beside Me
TTITLE2=Time
TTITLE3=When I Dream
TTITLE4=Scarlett Ribbons
TTITLE5=I'm Not Lisa
TTITLE6=I Still Miss Someone
TTITLE7=I'll Meet You In My Dreams
TTITLE8=I'll Walk Beside You
TTITLE9=Last Rose Of Summer
TTITLE10=Diamond In My Crown
TTITLE11=Peace In The Valley
EXTD=
EXTT0=
EXTT1=
EXTT2=
EXTT3=
EXTT4=
EXTT5=
EXTT6=
EXTT7=
EXTT8=
EXTT9=
EXTT10=
EXTT11=
PLAYORDER=
